<?xml version="1.0" encoding="utf-8"?>
<!-- Generator: Adobe Illustrator 25.4.1, SVG Export Plug-In . SVG Version: 6.00 Build 0)  -->
<svg version="1.1" id="Capa_1" xmlns="http://www.w3.org/2000/svg" xmlns:xlink="http://www.w3.org/1999/xlink" x="0px" y="0px"
	 viewBox="0 0 566.9 566.9" style="enable-background:new 0 0 566.9 566.9;" xml:space="preserve">
<style type="text/css">
	.st0{fill:#FFFFFF;}
</style>
<g id="dV3h8C.tif">
	<g>
		<path class="st0" d="M283.4,151.1c73,0,132.4,59.3,132.4,132.3c0,73-59.4,132.4-132.3,132.4c-73,0-132.4-59.4-132.4-132.4
			C151.1,210.5,210.5,151.1,283.4,151.1z M382.7,283.6c0-54.6-44.6-99.3-99.2-99.3c-54.6,0-99.3,44.6-99.3,99.2
			c0,54.6,44.6,99.3,99.2,99.3C338,382.7,382.7,338.1,382.7,283.6z"/>
		<path class="st0" d="M266.9,87.1c0-6.2-0.1-12.4,0-18.6c0.1-9.6,7.4-16.8,16.6-16.7c9.2,0,16.4,7.3,16.4,16.9
			c0.1,12.4,0.1,24.8,0,37.2c-0.1,9.6-7.2,17-16.4,17.1c-9.2,0.1-16.6-7.5-16.7-17.3C266.9,99.5,266.9,93.3,266.9,87.1z"/>
		<path class="st0" d="M87.2,300c-6.2,0-12.4,0.1-18.6,0c-9.6-0.1-16.8-7.3-16.8-16.6c0-9.2,7.2-16.4,16.8-16.5
			c12.6-0.1,25.1-0.1,37.7,0c9.2,0.1,16.5,7.3,16.6,16.3c0.2,9.1-7.2,16.6-16.7,16.8C99.9,300.1,93.6,300,87.2,300z"/>
		<path class="st0" d="M479.7,300c-6.4,0-12.7,0.1-19.1,0c-9.4-0.2-16.9-7.8-16.7-16.8c0.2-9,7.4-16.2,16.6-16.3
			c12.7-0.1,25.5-0.1,38.2,0c9.2,0.1,16.3,7.5,16.3,16.5c0,9-7.1,16.3-16.3,16.5C492.4,300.1,486.1,300,479.7,300z"/>
		<path class="st0" d="M300,479.4c0,6.4,0.1,12.7,0,19.1c-0.2,9.5-7.5,16.7-16.8,16.6c-9-0.1-16.2-7.3-16.3-16.5
			c-0.1-12.7-0.1-25.5,0-38.2c0.1-9.2,7.5-16.4,16.5-16.4c8.9,0,16.4,7.3,16.6,16.4C300.1,466.7,300,473,300,479.4z"/>
		<path class="st0" d="M133.8,114.8c1.8,0.9,6,2,8.8,4.6c9.4,8.8,18.5,18,27.5,27.3c6.6,6.8,6.4,16.8-0.1,23.2
			c-6.4,6.5-16.5,6.7-23.2,0.2c-9.3-9-18.4-18.1-27.4-27.4c-5-5.2-6-11.6-3.1-18.1C119.2,118.3,124.4,115,133.8,114.8z"/>
		<path class="st0" d="M453.1,132.5c-2,3.6-3.5,7.8-6.2,10.8c-8.4,9-17.3,17.7-26.2,26.4c-7,6.9-17,6.9-23.6,0.4
			c-6.6-6.5-6.8-16.6,0-23.6c8.9-9.1,17.9-18.1,27-27c5.2-5.1,11.5-5.9,18.1-3.2C448.5,118.8,452.2,125,453.1,132.5z"/>
		<path class="st0" d="M131.7,452.9c-7.2-1-12.3-4.2-15.2-10.3c-2.9-6.1-2.5-12.4,2.1-17.4c9.4-10,19.1-19.8,29.2-29.2
			c6.4-6,16.3-5.1,22.4,1.1c5.9,6.1,6.6,15.8,0.8,22c-9.4,10-19.2,19.7-29.2,29.1C139.1,450.7,135,451.4,131.7,452.9z"/>
		<path class="st0" d="M452.2,433.5c-0.3,8.9-3.5,14-9.6,16.9c-6.3,3-12.7,2.4-17.8-2.4c-9.7-9.2-19.2-18.7-28.5-28.4
			c-6.2-6.5-5.6-16.6,0.8-22.8c6.3-6.1,16-6.5,22.4-0.4c9.7,9.2,19.2,18.7,28.4,28.5C450.5,427.6,451.3,431.8,452.2,433.5z"/>
		<path class="st0" d="M281.4,217.3c10.6-0.1,18.2,6.4,18.6,15.8c0.4,9.8-6.8,16.9-17.7,17.3c-17.8,0.8-31.2,14.6-32,32.8
			c-0.4,9.9-7.7,17.1-17.1,16.8c-9.1-0.3-16.2-7.7-15.9-17.4c0.2-5.3,0.8-10.7,2.1-15.8C226.3,238.8,253.1,217.6,281.4,217.3z"/>
	</g>
</g>
</svg>
